<mxfile host="Electron" agent="Mozilla/5.0 (Windows NT 10.0; Win64; x64) AppleWebKit/537.36 (KHTML, like Gecko) draw.io/27.0.9 Chrome/134.0.6998.205 Electron/35.4.0 Safari/537.36" version="27.0.9" pages="2">
  <diagram name="요구사항분석" id="wEBZLUdSy_pYpkPb0r7T">
    <mxGraphModel dx="5845" dy="1880" grid="1" gridSize="50" guides="1" tooltips="1" connect="1" arrows="1" fold="1" page="1" pageScale="1" pageWidth="827" pageHeight="1169" background="#FFFFFF" math="0" shadow="0">
      <root>
        <mxCell id="0" />
        <mxCell id="1" parent="0" />
        <mxCell id="LYzSvVcboR2xnCCWTsnv-2" value="" style="swimlane;startSize=0;shadow=0;swimlaneLine=1;align=left;strokeColor=#000000;strokeWidth=5;sketch=1;curveFitting=1;jiggle=2;fontSize=12;fontStyle=1" parent="1" vertex="1">
          <mxGeometry x="-2880" y="280" width="1360" height="1550" as="geometry" />
        </mxCell>
        <mxCell id="c16TXa6cSCt1lNUTiCFk-7" style="edgeStyle=orthogonalEdgeStyle;rounded=0;orthogonalLoop=1;jettySize=auto;html=1;entryX=0.5;entryY=0;entryDx=0;entryDy=0;strokeColor=#000000;sketch=1;curveFitting=1;jiggle=2;strokeWidth=2;fontSize=12;fontStyle=1" parent="LYzSvVcboR2xnCCWTsnv-2" source="yAhKb7uIIoxokVIyxxAN-3" target="yAhKb7uIIoxokVIyxxAN-5" edge="1">
          <mxGeometry relative="1" as="geometry" />
        </mxCell>
        <mxCell id="yAhKb7uIIoxokVIyxxAN-3" value="&lt;font style=&quot;color: rgb(0, 0, 0);&quot;&gt;업로드 기능&lt;/font&gt;" style="text;html=1;align=center;verticalAlign=middle;whiteSpace=wrap;rounded=0;strokeColor=#3700CC;fillColor=#6a00ff;fontColor=#ffffff;fontStyle=1;shadow=0;swimlaneLine=1;sketch=1;curveFitting=1;jiggle=2;strokeWidth=2;fontSize=12;" parent="LYzSvVcboR2xnCCWTsnv-2" vertex="1">
          <mxGeometry x="439" y="640" width="160" height="40" as="geometry" />
        </mxCell>
        <mxCell id="c16TXa6cSCt1lNUTiCFk-8" style="edgeStyle=orthogonalEdgeStyle;rounded=0;orthogonalLoop=1;jettySize=auto;html=1;strokeColor=#000000;sketch=1;curveFitting=1;jiggle=2;strokeWidth=2;fontSize=12;fontStyle=1" parent="LYzSvVcboR2xnCCWTsnv-2" source="yAhKb7uIIoxokVIyxxAN-5" target="yAhKb7uIIoxokVIyxxAN-9" edge="1">
          <mxGeometry relative="1" as="geometry" />
        </mxCell>
        <mxCell id="yAhKb7uIIoxokVIyxxAN-5" value="&lt;div&gt;&lt;div style=&quot;text-align: center;&quot;&gt;&lt;font style=&quot;color: rgb(0, 0, 0);&quot;&gt;&lt;span style=&quot;background-color: transparent;&quot;&gt;[비&lt;/span&gt;&lt;span style=&quot;background-color: transparent;&quot;&gt;회원]&lt;/span&gt;&lt;/font&gt;&lt;/div&gt;&lt;div&gt;&lt;font style=&quot;color: rgb(0, 0, 0);&quot;&gt;&lt;br&gt;&lt;/font&gt;&lt;/div&gt;&lt;font style=&quot;color: rgb(0, 0, 0);&quot;&gt;비회원은 게시물을&amp;nbsp;조회할 수 있다&amp;nbsp;(Read)&lt;/font&gt;&lt;br&gt;&lt;/div&gt;" style="text;html=1;align=left;verticalAlign=middle;whiteSpace=wrap;rounded=0;strokeColor=#000000;shadow=0;swimlaneLine=1;sketch=1;curveFitting=1;jiggle=2;strokeWidth=2;fontSize=12;fontStyle=1" parent="LYzSvVcboR2xnCCWTsnv-2" vertex="1">
          <mxGeometry x="399" y="760" width="240" height="120" as="geometry" />
        </mxCell>
        <mxCell id="yAhKb7uIIoxokVIyxxAN-6" style="edgeStyle=orthogonalEdgeStyle;rounded=0;orthogonalLoop=1;jettySize=auto;html=1;exitX=0.5;exitY=1;exitDx=0;exitDy=0;entryX=0.5;entryY=0;entryDx=0;entryDy=0;shadow=0;swimlaneLine=1;strokeColor=#000000;sketch=1;curveFitting=1;jiggle=2;strokeWidth=2;fontSize=12;fontStyle=1" parent="LYzSvVcboR2xnCCWTsnv-2" source="yAhKb7uIIoxokVIyxxAN-7" target="yAhKb7uIIoxokVIyxxAN-3" edge="1">
          <mxGeometry relative="1" as="geometry" />
        </mxCell>
        <mxCell id="yAhKb7uIIoxokVIyxxAN-7" value="&lt;font style=&quot;color: rgb(0, 0, 0);&quot;&gt;기능&lt;/font&gt;" style="text;html=1;align=center;verticalAlign=middle;whiteSpace=wrap;rounded=0;strokeColor=#BD7000;fillColor=#f0a30a;fontColor=#FFFFFF;fontStyle=1;fontSize=12;shadow=0;swimlaneLine=1;sketch=1;curveFitting=1;jiggle=2;strokeWidth=2;" parent="LYzSvVcboR2xnCCWTsnv-2" vertex="1">
          <mxGeometry x="439" y="520" width="160" height="40" as="geometry" />
        </mxCell>
        <mxCell id="c16TXa6cSCt1lNUTiCFk-9" style="edgeStyle=orthogonalEdgeStyle;rounded=0;orthogonalLoop=1;jettySize=auto;html=1;entryX=0.5;entryY=0;entryDx=0;entryDy=0;strokeColor=#000000;sketch=1;curveFitting=1;jiggle=2;strokeWidth=2;fontSize=12;fontStyle=1" parent="LYzSvVcboR2xnCCWTsnv-2" source="yAhKb7uIIoxokVIyxxAN-9" target="yAhKb7uIIoxokVIyxxAN-11" edge="1">
          <mxGeometry relative="1" as="geometry" />
        </mxCell>
        <mxCell id="yAhKb7uIIoxokVIyxxAN-9" value="&lt;font style=&quot;color: rgb(0, 0, 0);&quot;&gt;댓글 기능(공감 혹은 반응)&lt;/font&gt;" style="text;html=1;align=center;verticalAlign=middle;whiteSpace=wrap;rounded=0;strokeColor=#3700CC;fillColor=#6a00ff;fontColor=#ffffff;fontStyle=1;shadow=0;swimlaneLine=1;sketch=1;curveFitting=1;jiggle=2;strokeWidth=2;fontSize=12;" parent="LYzSvVcboR2xnCCWTsnv-2" vertex="1">
          <mxGeometry x="439" y="960" width="160" height="40" as="geometry" />
        </mxCell>
        <mxCell id="c16TXa6cSCt1lNUTiCFk-10" style="edgeStyle=orthogonalEdgeStyle;rounded=0;orthogonalLoop=1;jettySize=auto;html=1;entryX=0.5;entryY=0;entryDx=0;entryDy=0;strokeColor=#000000;sketch=1;curveFitting=1;jiggle=2;strokeWidth=2;fontSize=12;fontStyle=1" parent="LYzSvVcboR2xnCCWTsnv-2" source="yAhKb7uIIoxokVIyxxAN-11" target="yAhKb7uIIoxokVIyxxAN-13" edge="1">
          <mxGeometry relative="1" as="geometry" />
        </mxCell>
        <mxCell id="yAhKb7uIIoxokVIyxxAN-11" value="&lt;div&gt;&lt;div style=&quot;text-align: center;&quot;&gt;&lt;font style=&quot;color: rgb(0, 0, 0);&quot;&gt;&lt;span style=&quot;background-color: transparent;&quot;&gt;[비&lt;/span&gt;&lt;span style=&quot;background-color: transparent;&quot;&gt;회원]&lt;/span&gt;&lt;/font&gt;&lt;/div&gt;&lt;font style=&quot;color: rgb(0, 0, 0);&quot;&gt;&lt;span style=&quot;text-align: center;&quot;&gt;&lt;div&gt;&lt;span style=&quot;text-align: center;&quot;&gt;&lt;br&gt;&lt;/span&gt;&lt;/div&gt;비&lt;/span&gt;회원은 댓글을 조회할 수 있다&lt;span&gt;&amp;nbsp;(Read)&lt;/span&gt;&lt;/font&gt;&lt;br&gt;&lt;/div&gt;" style="text;html=1;align=left;verticalAlign=middle;whiteSpace=wrap;rounded=0;strokeColor=#000000;shadow=0;swimlaneLine=1;sketch=1;curveFitting=1;jiggle=2;strokeWidth=2;fontSize=12;fontStyle=1" parent="LYzSvVcboR2xnCCWTsnv-2" vertex="1">
          <mxGeometry x="399" y="1080" width="240" height="120" as="geometry" />
        </mxCell>
        <mxCell id="c16TXa6cSCt1lNUTiCFk-16" value="" style="edgeStyle=orthogonalEdgeStyle;rounded=0;orthogonalLoop=1;jettySize=auto;html=1;strokeColor=#000000;sketch=1;curveFitting=1;jiggle=2;strokeWidth=2;fontSize=12;fontStyle=1" parent="LYzSvVcboR2xnCCWTsnv-2" source="yAhKb7uIIoxokVIyxxAN-17" target="yAhKb7uIIoxokVIyxxAN-19" edge="1">
          <mxGeometry relative="1" as="geometry" />
        </mxCell>
        <mxCell id="yAhKb7uIIoxokVIyxxAN-17" value="&lt;font style=&quot;color: rgb(0, 0, 0);&quot;&gt;업로드 기능&lt;/font&gt;" style="text;html=1;align=center;verticalAlign=middle;whiteSpace=wrap;rounded=0;strokeColor=#3700CC;fillColor=#6a00ff;fontColor=#ffffff;fontStyle=1;shadow=0;swimlaneLine=1;sketch=1;curveFitting=1;jiggle=2;strokeWidth=2;fontSize=12;" parent="LYzSvVcboR2xnCCWTsnv-2" vertex="1">
          <mxGeometry x="799" y="640" width="160" height="40" as="geometry" />
        </mxCell>
        <mxCell id="c16TXa6cSCt1lNUTiCFk-15" value="" style="edgeStyle=orthogonalEdgeStyle;rounded=0;orthogonalLoop=1;jettySize=auto;html=1;strokeColor=#000000;sketch=1;curveFitting=1;jiggle=2;strokeWidth=2;fontSize=12;fontStyle=1" parent="LYzSvVcboR2xnCCWTsnv-2" source="yAhKb7uIIoxokVIyxxAN-19" target="yAhKb7uIIoxokVIyxxAN-23" edge="1">
          <mxGeometry relative="1" as="geometry" />
        </mxCell>
        <mxCell id="yAhKb7uIIoxokVIyxxAN-19" value="&lt;div&gt;&lt;div style=&quot;text-align: center;&quot;&gt;&lt;span style=&quot;text-align: left;&quot;&gt;&lt;font style=&quot;color: rgb(0, 0, 0);&quot;&gt;[관리자]&lt;/font&gt;&lt;/span&gt;&lt;/div&gt;&lt;div style=&quot;text-align: center;&quot;&gt;&lt;span style=&quot;text-align: left;&quot;&gt;&lt;font style=&quot;color: rgb(0, 0, 0);&quot;&gt;&lt;br&gt;&lt;/font&gt;&lt;/span&gt;&lt;/div&gt;&lt;font style=&quot;color: rgb(0, 0, 0);&quot;&gt;&lt;span style=&quot;text-align: center;&quot;&gt;관리자는&lt;/span&gt;&amp;nbsp;게시물을 등록할 수 있다 (Create)&lt;br&gt;&lt;span style=&quot;text-align: center;&quot;&gt;관리자는&lt;/span&gt;&amp;nbsp;게시물을&amp;nbsp;조회할 수 있다&amp;nbsp;(Read)&lt;br&gt;&lt;span style=&quot;text-align: center;&quot;&gt;관리자는&lt;/span&gt;&amp;nbsp;게시물을&amp;nbsp;수정할 수 있다&amp;nbsp;(Update)&lt;br&gt;&lt;span style=&quot;text-align: center;&quot;&gt;관리자는&lt;/span&gt;&amp;nbsp;게시물을&amp;nbsp;삭제할 수 있다&amp;nbsp;(Delete)&lt;/font&gt;&lt;/div&gt;" style="text;html=1;align=left;verticalAlign=middle;whiteSpace=wrap;rounded=0;strokeColor=#000000;shadow=0;swimlaneLine=1;sketch=1;curveFitting=1;jiggle=2;strokeWidth=2;fontSize=12;fontStyle=1" parent="LYzSvVcboR2xnCCWTsnv-2" vertex="1">
          <mxGeometry x="759" y="760" width="240" height="120" as="geometry" />
        </mxCell>
        <mxCell id="yAhKb7uIIoxokVIyxxAN-20" style="edgeStyle=orthogonalEdgeStyle;rounded=0;orthogonalLoop=1;jettySize=auto;html=1;exitX=0.5;exitY=1;exitDx=0;exitDy=0;entryX=0.5;entryY=0;entryDx=0;entryDy=0;shadow=0;swimlaneLine=1;strokeColor=#000000;sketch=1;curveFitting=1;jiggle=2;strokeWidth=2;fontSize=12;fontStyle=1" parent="LYzSvVcboR2xnCCWTsnv-2" source="yAhKb7uIIoxokVIyxxAN-21" target="yAhKb7uIIoxokVIyxxAN-17" edge="1">
          <mxGeometry relative="1" as="geometry" />
        </mxCell>
        <mxCell id="yAhKb7uIIoxokVIyxxAN-21" value="&lt;font style=&quot;color: rgb(0, 0, 0);&quot;&gt;기능&lt;/font&gt;" style="text;html=1;align=center;verticalAlign=middle;whiteSpace=wrap;rounded=0;strokeColor=#BD7000;fillColor=#f0a30a;fontColor=#FFFFFF;fontStyle=1;fontSize=12;shadow=0;swimlaneLine=1;sketch=1;curveFitting=1;jiggle=2;strokeWidth=2;" parent="LYzSvVcboR2xnCCWTsnv-2" vertex="1">
          <mxGeometry x="799" y="520" width="160" height="40" as="geometry" />
        </mxCell>
        <mxCell id="c16TXa6cSCt1lNUTiCFk-14" value="" style="edgeStyle=orthogonalEdgeStyle;rounded=0;orthogonalLoop=1;jettySize=auto;html=1;strokeColor=#000000;sketch=1;curveFitting=1;jiggle=2;strokeWidth=2;fontSize=12;fontStyle=1" parent="LYzSvVcboR2xnCCWTsnv-2" source="yAhKb7uIIoxokVIyxxAN-23" target="yAhKb7uIIoxokVIyxxAN-25" edge="1">
          <mxGeometry relative="1" as="geometry" />
        </mxCell>
        <mxCell id="yAhKb7uIIoxokVIyxxAN-23" value="&lt;font style=&quot;color: rgb(0, 0, 0);&quot;&gt;댓글 기능(공감 혹은 반응)&lt;/font&gt;" style="text;html=1;align=center;verticalAlign=middle;whiteSpace=wrap;rounded=0;strokeColor=#3700CC;fillColor=#6a00ff;fontColor=#ffffff;fontStyle=1;shadow=0;swimlaneLine=1;sketch=1;curveFitting=1;jiggle=2;strokeWidth=2;fontSize=12;" parent="LYzSvVcboR2xnCCWTsnv-2" vertex="1">
          <mxGeometry x="799" y="960" width="160" height="40" as="geometry" />
        </mxCell>
        <mxCell id="yAhKb7uIIoxokVIyxxAN-24" style="edgeStyle=orthogonalEdgeStyle;rounded=0;orthogonalLoop=1;jettySize=auto;html=1;exitX=0.5;exitY=1;exitDx=0;exitDy=0;entryX=0.5;entryY=0;entryDx=0;entryDy=0;shadow=0;swimlaneLine=1;strokeColor=#000000;sketch=1;curveFitting=1;jiggle=2;strokeWidth=2;fontSize=12;fontStyle=1" parent="LYzSvVcboR2xnCCWTsnv-2" source="yAhKb7uIIoxokVIyxxAN-25" target="yAhKb7uIIoxokVIyxxAN-27" edge="1">
          <mxGeometry relative="1" as="geometry" />
        </mxCell>
        <mxCell id="yAhKb7uIIoxokVIyxxAN-25" value="&lt;div&gt;&lt;div style=&quot;text-align: center;&quot;&gt;&lt;span style=&quot;background-color: transparent; text-align: left;&quot;&gt;&lt;font style=&quot;color: rgb(0, 0, 0);&quot;&gt;[관리자]&lt;/font&gt;&lt;/span&gt;&lt;/div&gt;&lt;div style=&quot;text-align: center;&quot;&gt;&lt;span style=&quot;background-color: transparent; text-align: left;&quot;&gt;&lt;font style=&quot;color: rgb(0, 0, 0);&quot;&gt;&lt;br&gt;&lt;/font&gt;&lt;/span&gt;&lt;/div&gt;&lt;div style=&quot;text-align: center;&quot;&gt;&lt;font style=&quot;color: rgb(0, 0, 0);&quot;&gt;&lt;span style=&quot;background-color: transparent;&quot;&gt;관리자는&lt;/span&gt;&lt;span style=&quot;background-color: transparent; text-align: left;&quot;&gt;&amp;nbsp;댓글을 등록할 수 있다 (Create)&lt;/span&gt;&lt;/font&gt;&lt;/div&gt;&lt;font style=&quot;color: rgb(0, 0, 0);&quot;&gt;&lt;span style=&quot;text-align: center;&quot;&gt;관리자는&lt;/span&gt;&amp;nbsp;댓글을 조회할 수 있다&lt;span&gt;&amp;nbsp;(Read)&lt;/span&gt;&lt;br&gt;&lt;span style=&quot;text-align: center;&quot;&gt;관리자는&lt;/span&gt;&amp;nbsp;댓글을 수정할 수 있다&lt;span&gt;&amp;nbsp;(Update)&lt;/span&gt;&lt;br&gt;&lt;span style=&quot;text-align: center;&quot;&gt;관리자는&lt;/span&gt;&amp;nbsp;댓글을 삭제할 수 있다&lt;span&gt;&amp;nbsp;(Delete)&lt;/span&gt;&lt;/font&gt;&lt;/div&gt;" style="text;html=1;align=left;verticalAlign=middle;whiteSpace=wrap;rounded=0;strokeColor=#000000;shadow=0;swimlaneLine=1;sketch=1;curveFitting=1;jiggle=2;strokeWidth=2;fontSize=12;fontStyle=1" parent="LYzSvVcboR2xnCCWTsnv-2" vertex="1">
          <mxGeometry x="759" y="1080" width="240" height="120" as="geometry" />
        </mxCell>
        <mxCell id="yAhKb7uIIoxokVIyxxAN-1" value="&lt;div&gt;&lt;div style=&quot;text-align: center;&quot;&gt;&lt;font style=&quot;color: rgb(0, 0, 0);&quot;&gt;&lt;span style=&quot;background-color: transparent;&quot;&gt;[비&lt;/span&gt;&lt;span style=&quot;background-color: transparent;&quot;&gt;회원]&lt;/span&gt;&lt;/font&gt;&lt;/div&gt;&lt;font style=&quot;color: rgb(0, 0, 0);&quot;&gt;&lt;span style=&quot;text-align: center;&quot;&gt;&lt;div&gt;&lt;span style=&quot;text-align: center;&quot;&gt;&lt;br&gt;&lt;/span&gt;&lt;/div&gt;비&lt;/span&gt;회원은&amp;nbsp;&lt;span style=&quot;background-color: transparent;&quot;&gt;지도를&lt;/span&gt;&lt;span style=&quot;background-color: transparent;&quot;&gt;&amp;nbsp;조회할 수 있다&lt;/span&gt;&lt;span style=&quot;background-color: transparent;&quot;&gt;&amp;nbsp;(Read)&lt;/span&gt;&lt;/font&gt;&lt;/div&gt;" style="text;html=1;align=left;verticalAlign=middle;whiteSpace=wrap;rounded=0;strokeColor=#000000;shadow=0;swimlaneLine=1;sketch=1;curveFitting=1;jiggle=2;strokeWidth=2;fontSize=12;fontStyle=1" parent="LYzSvVcboR2xnCCWTsnv-2" vertex="1">
          <mxGeometry x="399.25" y="1400" width="239.75" height="120" as="geometry" />
        </mxCell>
        <mxCell id="yAhKb7uIIoxokVIyxxAN-15" value="&lt;div&gt;&lt;div style=&quot;text-align: center;&quot;&gt;&lt;span style=&quot;background-color: transparent; text-align: left;&quot;&gt;&lt;font style=&quot;color: rgb(0, 0, 0);&quot;&gt;[관리자]&lt;/font&gt;&lt;/span&gt;&lt;/div&gt;&lt;div style=&quot;text-align: center;&quot;&gt;&lt;span style=&quot;background-color: transparent; text-align: left;&quot;&gt;&lt;font style=&quot;color: rgb(0, 0, 0);&quot;&gt;&lt;br&gt;&lt;/font&gt;&lt;/span&gt;&lt;/div&gt;&lt;div style=&quot;text-align: center;&quot;&gt;&lt;span style=&quot;background-color: transparent; text-align: left;&quot;&gt;&lt;font style=&quot;color: rgb(0, 0, 0);&quot;&gt;관리자는 지도를 등록할 수 있다 (Create)&lt;/font&gt;&lt;/span&gt;&lt;/div&gt;&lt;font style=&quot;color: rgb(0, 0, 0);&quot;&gt;관리자는&amp;nbsp;&lt;span style=&quot;background-color: transparent;&quot;&gt;지도를&lt;/span&gt;&lt;span style=&quot;background-color: transparent;&quot;&gt;&amp;nbsp;조회할 수 있다&lt;/span&gt;&lt;span style=&quot;background-color: transparent;&quot;&gt;&amp;nbsp;(Read)&lt;/span&gt;&lt;/font&gt;&lt;/div&gt;&lt;div&gt;&lt;font style=&quot;color: rgb(0, 0, 0);&quot;&gt;&lt;span style=&quot;background-color: transparent;&quot;&gt;관리자는&lt;/span&gt;&amp;nbsp;&lt;span style=&quot;background-color: transparent;&quot;&gt;지도를&lt;/span&gt;&lt;span style=&quot;background-color: transparent;&quot;&gt;&amp;nbsp;수정할 수 있&lt;/span&gt;&lt;span style=&quot;background-color: transparent;&quot;&gt;다&lt;/span&gt;&lt;span style=&quot;background-color: transparent;&quot;&gt;&amp;nbsp;(Update)&lt;/span&gt;&lt;/font&gt;&lt;/div&gt;&lt;div&gt;&lt;font style=&quot;color: rgb(0, 0, 0);&quot;&gt;&lt;span style=&quot;background-color: transparent;&quot;&gt;관리자는&lt;/span&gt;&amp;nbsp;&lt;span style=&quot;background-color: transparent;&quot;&gt;지도를&lt;/span&gt;&lt;span style=&quot;background-color: transparent;&quot;&gt;&amp;nbsp;삭제할 수 있&lt;/span&gt;&lt;span style=&quot;background-color: transparent;&quot;&gt;다&lt;/span&gt;&lt;span style=&quot;background-color: transparent;&quot;&gt;&amp;nbsp;(Delete)&lt;/span&gt;&lt;/font&gt;&lt;/div&gt;" style="text;html=1;align=left;verticalAlign=middle;whiteSpace=wrap;rounded=0;strokeColor=#000000;shadow=0;swimlaneLine=1;sketch=1;curveFitting=1;jiggle=2;strokeWidth=2;fontSize=12;fontStyle=1" parent="LYzSvVcboR2xnCCWTsnv-2" vertex="1">
          <mxGeometry x="759" y="1400" width="240" height="120" as="geometry" />
        </mxCell>
        <mxCell id="0NoJ1kTHYfertKE0bMIc-10" style="edgeStyle=orthogonalEdgeStyle;rounded=0;orthogonalLoop=1;jettySize=auto;html=1;entryX=0;entryY=0.5;entryDx=0;entryDy=0;sketch=1;curveFitting=1;jiggle=2;strokeWidth=2;fontSize=12;fontStyle=1;strokeColor=#000000;" parent="LYzSvVcboR2xnCCWTsnv-2" source="yAhKb7uIIoxokVIyxxAN-27" target="yAhKb7uIIoxokVIyxxAN-28" edge="1">
          <mxGeometry relative="1" as="geometry">
            <Array as="points">
              <mxPoint x="1119" y="1300" />
              <mxPoint x="1119" y="1300" />
            </Array>
          </mxGeometry>
        </mxCell>
        <mxCell id="c16TXa6cSCt1lNUTiCFk-13" value="" style="edgeStyle=orthogonalEdgeStyle;rounded=0;orthogonalLoop=1;jettySize=auto;html=1;strokeColor=#000000;sketch=1;curveFitting=1;jiggle=2;strokeWidth=2;fontSize=12;fontStyle=1" parent="LYzSvVcboR2xnCCWTsnv-2" source="yAhKb7uIIoxokVIyxxAN-27" target="yAhKb7uIIoxokVIyxxAN-15" edge="1">
          <mxGeometry relative="1" as="geometry" />
        </mxCell>
        <mxCell id="yAhKb7uIIoxokVIyxxAN-27" value="&lt;font style=&quot;color: rgb(0, 0, 0);&quot;&gt;지도 기능&lt;/font&gt;" style="text;html=1;align=center;verticalAlign=middle;whiteSpace=wrap;rounded=0;strokeColor=#3700CC;fillColor=#6a00ff;fontColor=#ffffff;fontStyle=1;shadow=0;swimlaneLine=1;sketch=1;curveFitting=1;jiggle=2;strokeWidth=2;fontSize=12;" parent="LYzSvVcboR2xnCCWTsnv-2" vertex="1">
          <mxGeometry x="799" y="1280" width="160" height="40" as="geometry" />
        </mxCell>
        <mxCell id="c16TXa6cSCt1lNUTiCFk-12" value="" style="edgeStyle=orthogonalEdgeStyle;rounded=0;orthogonalLoop=1;jettySize=auto;html=1;sketch=1;curveFitting=1;jiggle=2;strokeWidth=2;fontSize=12;fontStyle=1" parent="LYzSvVcboR2xnCCWTsnv-2" source="yAhKb7uIIoxokVIyxxAN-28" target="yAhKb7uIIoxokVIyxxAN-29" edge="1">
          <mxGeometry relative="1" as="geometry" />
        </mxCell>
        <mxCell id="2nBrNGREIw4cwzGFP3JP-1" value="" style="edgeStyle=orthogonalEdgeStyle;rounded=0;orthogonalLoop=1;jettySize=auto;html=1;strokeColor=#000000;sketch=1;curveFitting=1;jiggle=2;strokeWidth=2;fontSize=12;fontStyle=1" parent="LYzSvVcboR2xnCCWTsnv-2" source="yAhKb7uIIoxokVIyxxAN-28" target="yAhKb7uIIoxokVIyxxAN-29" edge="1">
          <mxGeometry relative="1" as="geometry" />
        </mxCell>
        <mxCell id="yAhKb7uIIoxokVIyxxAN-28" value="&lt;font style=&quot;color: rgb(0, 0, 0);&quot;&gt;지도 관리 기능&lt;/font&gt;" style="text;html=1;align=center;verticalAlign=middle;whiteSpace=wrap;rounded=0;strokeColor=#3700CC;fillColor=#6a00ff;fontColor=#ffffff;fontStyle=1;shadow=0;swimlaneLine=1;sketch=1;curveFitting=1;jiggle=2;strokeWidth=2;fontSize=12;" parent="LYzSvVcboR2xnCCWTsnv-2" vertex="1">
          <mxGeometry x="1119" y="1280" width="160" height="40" as="geometry" />
        </mxCell>
        <mxCell id="yAhKb7uIIoxokVIyxxAN-29" value="&lt;div&gt;&lt;div style=&quot;text-align: center;&quot;&gt;&lt;font style=&quot;color: rgb(0, 0, 0);&quot;&gt;[관리자]&lt;/font&gt;&lt;/div&gt;&lt;div style=&quot;text-align: center;&quot;&gt;&lt;font style=&quot;color: rgb(0, 0, 0);&quot;&gt;&lt;br&gt;&lt;/font&gt;&lt;/div&gt;&lt;font style=&quot;color: rgb(0, 0, 0);&quot;&gt;&lt;span&gt;관리자는 지도를 등록할 수 있다 (Create)&lt;/span&gt;&lt;br&gt;관리자는&amp;nbsp;&lt;span style=&quot;background-color: transparent;&quot;&gt;지도를&lt;/span&gt;&lt;span style=&quot;background-color: transparent;&quot;&gt;&amp;nbsp;조회할 수 있다&lt;/span&gt;&lt;span style=&quot;background-color: transparent;&quot;&gt;&amp;nbsp;(Read)&lt;/span&gt;&lt;/font&gt;&lt;/div&gt;&lt;div&gt;&lt;font style=&quot;color: rgb(0, 0, 0);&quot;&gt;&lt;span style=&quot;background-color: transparent;&quot;&gt;관리자는&lt;/span&gt;&amp;nbsp;&lt;span style=&quot;background-color: transparent;&quot;&gt;지도를&lt;/span&gt;&lt;span style=&quot;background-color: transparent;&quot;&gt;&amp;nbsp;수정할 수 있&lt;/span&gt;&lt;span style=&quot;background-color: transparent;&quot;&gt;다&lt;/span&gt;&lt;span style=&quot;background-color: transparent;&quot;&gt;&amp;nbsp;(Update)&lt;/span&gt;&lt;/font&gt;&lt;/div&gt;&lt;div&gt;&lt;font style=&quot;color: rgb(0, 0, 0);&quot;&gt;&lt;span style=&quot;background-color: transparent;&quot;&gt;관리자는&lt;/span&gt;&amp;nbsp;&lt;span style=&quot;background-color: transparent;&quot;&gt;지도를&lt;/span&gt;&lt;span style=&quot;background-color: transparent;&quot;&gt;&amp;nbsp;삭제할 수 있&lt;/span&gt;&lt;span style=&quot;background-color: transparent;&quot;&gt;다&lt;/span&gt;&lt;span style=&quot;background-color: transparent;&quot;&gt;&amp;nbsp;(Delete)&lt;/span&gt;&lt;/font&gt;&lt;/div&gt;" style="text;html=1;align=left;verticalAlign=middle;whiteSpace=wrap;rounded=0;strokeColor=#000000;shadow=0;swimlaneLine=1;sketch=1;curveFitting=1;jiggle=2;strokeWidth=2;fontSize=12;fontStyle=1" parent="LYzSvVcboR2xnCCWTsnv-2" vertex="1">
          <mxGeometry x="1079" y="1400" width="240" height="120" as="geometry" />
        </mxCell>
        <mxCell id="c16TXa6cSCt1lNUTiCFk-11" style="edgeStyle=orthogonalEdgeStyle;rounded=0;orthogonalLoop=1;jettySize=auto;html=1;entryX=0.5;entryY=0;entryDx=0;entryDy=0;strokeColor=#000000;sketch=1;curveFitting=1;jiggle=2;strokeWidth=2;fontSize=12;fontStyle=1" parent="LYzSvVcboR2xnCCWTsnv-2" source="yAhKb7uIIoxokVIyxxAN-13" target="yAhKb7uIIoxokVIyxxAN-1" edge="1">
          <mxGeometry relative="1" as="geometry" />
        </mxCell>
        <mxCell id="yAhKb7uIIoxokVIyxxAN-13" value="&lt;font style=&quot;color: rgb(0, 0, 0);&quot;&gt;지도 기능&lt;/font&gt;" style="text;html=1;align=center;verticalAlign=middle;whiteSpace=wrap;rounded=0;strokeColor=#3700CC;fillColor=#6a00ff;fontColor=#ffffff;fontStyle=1;shadow=0;swimlaneLine=1;sketch=1;curveFitting=1;jiggle=2;strokeWidth=2;fontSize=12;" parent="LYzSvVcboR2xnCCWTsnv-2" vertex="1">
          <mxGeometry x="439" y="1280" width="160" height="40" as="geometry" />
        </mxCell>
        <mxCell id="LYzSvVcboR2xnCCWTsnv-7" value="&lt;font style=&quot;color: rgb(0, 0, 0);&quot;&gt;비회원&lt;/font&gt;" style="text;html=1;align=center;verticalAlign=middle;whiteSpace=wrap;rounded=0;strokeColor=#CC0000;fontStyle=1;fontSize=12;shadow=0;swimlaneLine=1;sketch=1;curveFitting=1;jiggle=2;strokeWidth=2;" parent="LYzSvVcboR2xnCCWTsnv-2" vertex="1">
          <mxGeometry x="479" y="120" width="80" height="40" as="geometry" />
        </mxCell>
        <mxCell id="LYzSvVcboR2xnCCWTsnv-8" value="&lt;font style=&quot;color: rgb(0, 0, 0);&quot;&gt;관리자&lt;/font&gt;" style="text;html=1;align=center;verticalAlign=middle;whiteSpace=wrap;rounded=0;strokeColor=#003300;fontStyle=1;fontSize=12;shadow=0;swimlaneLine=1;sketch=1;curveFitting=1;jiggle=2;strokeWidth=2;" parent="LYzSvVcboR2xnCCWTsnv-2" vertex="1">
          <mxGeometry x="839" y="120" width="80" height="40" as="geometry" />
        </mxCell>
        <mxCell id="c16TXa6cSCt1lNUTiCFk-29" value="" style="edgeStyle=orthogonalEdgeStyle;rounded=0;orthogonalLoop=1;jettySize=auto;html=1;strokeColor=#000000;sketch=1;curveFitting=1;jiggle=2;strokeWidth=2;fontSize=12;fontStyle=1" parent="LYzSvVcboR2xnCCWTsnv-2" source="LYzSvVcboR2xnCCWTsnv-11" target="LYzSvVcboR2xnCCWTsnv-14" edge="1">
          <mxGeometry relative="1" as="geometry" />
        </mxCell>
        <mxCell id="LYzSvVcboR2xnCCWTsnv-11" value="&lt;font style=&quot;color: rgb(0, 0, 0);&quot;&gt;인증 서비스(회원가입)&lt;/font&gt;" style="text;html=1;align=center;verticalAlign=middle;whiteSpace=wrap;rounded=0;strokeColor=#2D7600;fillColor=#60a917;fontColor=#ffffff;fontStyle=1;shadow=0;swimlaneLine=1;sketch=1;curveFitting=1;jiggle=2;strokeWidth=2;fontSize=12;" parent="LYzSvVcboR2xnCCWTsnv-2" vertex="1">
          <mxGeometry x="439" y="200" width="160" height="40" as="geometry" />
        </mxCell>
        <mxCell id="c16TXa6cSCt1lNUTiCFk-31" value="" style="edgeStyle=orthogonalEdgeStyle;rounded=0;orthogonalLoop=1;jettySize=auto;html=1;strokeColor=#000000;sketch=1;curveFitting=1;jiggle=2;strokeWidth=2;fontSize=12;fontStyle=1" parent="LYzSvVcboR2xnCCWTsnv-2" source="LYzSvVcboR2xnCCWTsnv-12" target="LYzSvVcboR2xnCCWTsnv-16" edge="1">
          <mxGeometry relative="1" as="geometry" />
        </mxCell>
        <mxCell id="LYzSvVcboR2xnCCWTsnv-12" value="&lt;font style=&quot;color: rgb(0, 0, 0);&quot;&gt;인증 서비스(회원가입)&lt;/font&gt;" style="text;html=1;align=center;verticalAlign=middle;whiteSpace=wrap;rounded=0;strokeColor=#2D7600;fillColor=#60a917;fontColor=#ffffff;fontStyle=1;shadow=0;swimlaneLine=1;sketch=1;curveFitting=1;jiggle=2;strokeWidth=2;fontSize=12;" parent="LYzSvVcboR2xnCCWTsnv-2" vertex="1">
          <mxGeometry x="799" y="200" width="160" height="40" as="geometry" />
        </mxCell>
        <mxCell id="c16TXa6cSCt1lNUTiCFk-30" value="" style="edgeStyle=orthogonalEdgeStyle;rounded=0;orthogonalLoop=1;jettySize=auto;html=1;strokeColor=#000000;sketch=1;curveFitting=1;jiggle=2;strokeWidth=2;fontSize=12;fontStyle=1" parent="LYzSvVcboR2xnCCWTsnv-2" source="LYzSvVcboR2xnCCWTsnv-14" target="yAhKb7uIIoxokVIyxxAN-7" edge="1">
          <mxGeometry relative="1" as="geometry" />
        </mxCell>
        <mxCell id="LYzSvVcboR2xnCCWTsnv-14" value="&lt;div&gt;&lt;font style=&quot;color: rgb(0, 0, 0);&quot;&gt;&lt;span style=&quot;background-color: transparent;&quot;&gt;[비&lt;/span&gt;&lt;span style=&quot;background-color: transparent;&quot;&gt;회원]&lt;/span&gt;&lt;/font&gt;&lt;/div&gt;&lt;div&gt;&lt;font style=&quot;color: rgb(0, 0, 0);&quot;&gt;비회원은 나의 정보 등록을 할 수 있다 (Create)&lt;/font&gt;&lt;/div&gt;" style="text;html=1;align=center;verticalAlign=middle;whiteSpace=wrap;rounded=0;strokeColor=#000000;shadow=0;swimlaneLine=1;sketch=1;curveFitting=1;jiggle=2;strokeWidth=2;fontSize=12;fontStyle=1" parent="LYzSvVcboR2xnCCWTsnv-2" vertex="1">
          <mxGeometry x="399" y="320" width="240" height="120" as="geometry" />
        </mxCell>
        <mxCell id="c16TXa6cSCt1lNUTiCFk-32" value="" style="edgeStyle=orthogonalEdgeStyle;rounded=0;orthogonalLoop=1;jettySize=auto;html=1;strokeColor=#000000;sketch=1;curveFitting=1;jiggle=2;strokeWidth=2;fontSize=12;fontStyle=1" parent="LYzSvVcboR2xnCCWTsnv-2" source="LYzSvVcboR2xnCCWTsnv-16" target="yAhKb7uIIoxokVIyxxAN-21" edge="1">
          <mxGeometry relative="1" as="geometry" />
        </mxCell>
        <mxCell id="LYzSvVcboR2xnCCWTsnv-16" value="&lt;div&gt;&lt;span&gt;&lt;font style=&quot;color: rgb(0, 0, 0);&quot;&gt;[관리자]&lt;/font&gt;&lt;/span&gt;&lt;/div&gt;&lt;div&gt;&lt;font style=&quot;color: rgb(0, 0, 0);&quot;&gt;&lt;span&gt;관리자는 나의 정보 조회를 할 수 있다 (Read)&lt;/span&gt;&lt;br&gt;관리자는&lt;span&gt;&amp;nbsp;나의 정보 수정를 할 수 있다(Update)&lt;/span&gt;&lt;br&gt;관리자는&lt;span&gt;&amp;nbsp;나의 정보 삭제를 할 수 있다(Delete)&lt;/span&gt;&lt;br&gt;&lt;br&gt;&lt;span&gt;로그인 &amp;amp; 로그아웃(Process)&lt;/span&gt;&lt;/font&gt;&lt;/div&gt;" style="text;html=1;align=left;verticalAlign=middle;whiteSpace=wrap;rounded=0;strokeColor=#000000;shadow=0;swimlaneLine=1;sketch=1;curveFitting=1;jiggle=2;strokeWidth=2;fontSize=12;fontStyle=1" parent="LYzSvVcboR2xnCCWTsnv-2" vertex="1">
          <mxGeometry x="759" y="320" width="240" height="120" as="geometry" />
        </mxCell>
        <mxCell id="LYzSvVcboR2xnCCWTsnv-70" value="&lt;div&gt;&lt;div style=&quot;text-align: center;&quot;&gt;&lt;span style=&quot;background-color: transparent;&quot;&gt;&lt;font style=&quot;color: rgb(0, 0, 0);&quot;&gt;[회원]&lt;/font&gt;&lt;/span&gt;&lt;/div&gt;&lt;div&gt;&lt;span style=&quot;background-color: transparent;&quot;&gt;&lt;font style=&quot;color: rgb(0, 0, 0);&quot;&gt;회원은 지도를 등록할 수 있다 (Create)&lt;/font&gt;&lt;/span&gt;&lt;/div&gt;&lt;font style=&quot;color: rgb(0, 0, 0);&quot;&gt;회원은&amp;nbsp;&lt;span style=&quot;background-color: transparent;&quot;&gt;지도를&lt;/span&gt;&lt;span style=&quot;background-color: transparent;&quot;&gt;&amp;nbsp;조회할 수 있다&lt;/span&gt;&lt;span style=&quot;background-color: transparent;&quot;&gt;&amp;nbsp;(Read)&lt;/span&gt;&lt;/font&gt;&lt;/div&gt;&lt;div&gt;&lt;font style=&quot;color: rgb(0, 0, 0);&quot;&gt;회원은&amp;nbsp;&lt;span style=&quot;background-color: transparent;&quot;&gt;지도를&lt;/span&gt;&lt;span style=&quot;background-color: transparent;&quot;&gt;&amp;nbsp;수정할 수 있&lt;/span&gt;&lt;span style=&quot;background-color: transparent;&quot;&gt;다&lt;/span&gt;&lt;span style=&quot;background-color: transparent;&quot;&gt;&amp;nbsp;(Update)&lt;/span&gt;&lt;/font&gt;&lt;/div&gt;&lt;div&gt;&lt;font style=&quot;color: rgb(0, 0, 0);&quot;&gt;회원은&amp;nbsp;&lt;span style=&quot;background-color: transparent;&quot;&gt;지도를&lt;/span&gt;&lt;span style=&quot;background-color: transparent;&quot;&gt;&amp;nbsp;삭제할 수 있&lt;/span&gt;&lt;span style=&quot;background-color: transparent;&quot;&gt;다&lt;/span&gt;&lt;span style=&quot;background-color: transparent;&quot;&gt;&amp;nbsp;(Delete)&lt;/span&gt;&lt;/font&gt;&lt;/div&gt;" style="text;html=1;align=left;verticalAlign=middle;whiteSpace=wrap;rounded=0;strokeColor=#000000;shadow=0;swimlaneLine=1;sketch=1;curveFitting=1;jiggle=2;strokeWidth=2;fontSize=12;fontStyle=1" parent="LYzSvVcboR2xnCCWTsnv-2" vertex="1">
          <mxGeometry x="39" y="1400" width="240" height="120" as="geometry" />
        </mxCell>
        <mxCell id="c16TXa6cSCt1lNUTiCFk-3" style="edgeStyle=orthogonalEdgeStyle;rounded=0;orthogonalLoop=1;jettySize=auto;html=1;entryX=0.5;entryY=0;entryDx=0;entryDy=0;strokeColor=#000000;sketch=1;curveFitting=1;jiggle=2;strokeWidth=2;fontSize=12;fontStyle=1" parent="LYzSvVcboR2xnCCWTsnv-2" source="LYzSvVcboR2xnCCWTsnv-60" target="LYzSvVcboR2xnCCWTsnv-70" edge="1">
          <mxGeometry relative="1" as="geometry" />
        </mxCell>
        <mxCell id="LYzSvVcboR2xnCCWTsnv-60" value="&lt;font style=&quot;color: rgb(0, 0, 0);&quot;&gt;지도 기능&lt;/font&gt;" style="text;html=1;align=center;verticalAlign=middle;whiteSpace=wrap;rounded=0;strokeColor=#3700CC;fillColor=#6a00ff;fontColor=#ffffff;fontStyle=1;shadow=0;swimlaneLine=1;sketch=1;curveFitting=1;jiggle=2;strokeWidth=2;fontSize=12;" parent="LYzSvVcboR2xnCCWTsnv-2" vertex="1">
          <mxGeometry x="79" y="1280" width="160" height="44" as="geometry" />
        </mxCell>
        <mxCell id="LYzSvVcboR2xnCCWTsnv-5" value="&lt;font style=&quot;color: rgb(0, 0, 0);&quot;&gt;회원&lt;/font&gt;" style="text;html=1;align=center;verticalAlign=middle;whiteSpace=wrap;rounded=0;strokeColor=#0000CC;fontStyle=1;fontSize=12;shadow=0;swimlaneLine=1;sketch=1;curveFitting=1;jiggle=2;strokeWidth=2;" parent="LYzSvVcboR2xnCCWTsnv-2" vertex="1">
          <mxGeometry x="118" y="120" width="81" height="40" as="geometry" />
        </mxCell>
        <mxCell id="c16TXa6cSCt1lNUTiCFk-5" style="edgeStyle=orthogonalEdgeStyle;rounded=0;orthogonalLoop=1;jettySize=auto;html=1;entryX=0.5;entryY=0;entryDx=0;entryDy=0;strokeColor=#000000;sketch=1;curveFitting=1;jiggle=2;strokeWidth=2;fontSize=12;fontStyle=1" parent="LYzSvVcboR2xnCCWTsnv-2" source="LYzSvVcboR2xnCCWTsnv-9" target="LYzSvVcboR2xnCCWTsnv-13" edge="1">
          <mxGeometry relative="1" as="geometry" />
        </mxCell>
        <mxCell id="LYzSvVcboR2xnCCWTsnv-9" value="&lt;font style=&quot;color: rgb(0, 0, 0);&quot;&gt;인증 서비스(회원가입)&lt;/font&gt;" style="text;html=1;align=center;verticalAlign=middle;whiteSpace=wrap;rounded=0;strokeColor=#2D7600;fillColor=#60a917;fontColor=#ffffff;fontStyle=1;shadow=0;swimlaneLine=1;sketch=1;curveFitting=1;jiggle=2;strokeWidth=2;fontSize=12;" parent="LYzSvVcboR2xnCCWTsnv-2" vertex="1">
          <mxGeometry x="79" y="200" width="160" height="40" as="geometry" />
        </mxCell>
        <mxCell id="c16TXa6cSCt1lNUTiCFk-4" style="edgeStyle=orthogonalEdgeStyle;rounded=0;orthogonalLoop=1;jettySize=auto;html=1;strokeColor=#000000;sketch=1;curveFitting=1;jiggle=2;strokeWidth=2;fontSize=12;fontStyle=1" parent="LYzSvVcboR2xnCCWTsnv-2" source="LYzSvVcboR2xnCCWTsnv-13" target="LYzSvVcboR2xnCCWTsnv-54" edge="1">
          <mxGeometry relative="1" as="geometry" />
        </mxCell>
        <mxCell id="LYzSvVcboR2xnCCWTsnv-13" value="&lt;div style=&quot;text-align: center;&quot;&gt;&lt;font style=&quot;color: rgb(0, 0, 0);&quot;&gt;[회원]&lt;/font&gt;&lt;/div&gt;&lt;div style=&quot;text-align: center;&quot;&gt;&lt;font style=&quot;color: rgb(0, 0, 0);&quot;&gt;&lt;br&gt;&lt;/font&gt;&lt;/div&gt;&lt;font style=&quot;color: rgb(0, 0, 0);&quot;&gt;회원은 나의 정보 조회를 할 수 있다 (Read)&lt;br&gt;회원은 나의 정보 수정를 할 수 있다(Update)&lt;br&gt;회원은 나의 정보 삭제를 할 수 있다(Delete)&lt;br&gt;&lt;br&gt;로그인 &amp;amp; 로그아웃(Process)&lt;/font&gt;" style="text;html=1;align=left;verticalAlign=middle;whiteSpace=wrap;rounded=0;strokeColor=#000000;shadow=0;swimlaneLine=1;sketch=1;curveFitting=1;jiggle=2;strokeWidth=2;fontSize=12;fontStyle=1" parent="LYzSvVcboR2xnCCWTsnv-2" vertex="1">
          <mxGeometry x="39" y="320" width="240" height="120" as="geometry" />
        </mxCell>
        <mxCell id="LYzSvVcboR2xnCCWTsnv-49" style="edgeStyle=orthogonalEdgeStyle;rounded=0;orthogonalLoop=1;jettySize=auto;html=1;exitX=0.5;exitY=1;exitDx=0;exitDy=0;entryX=0.5;entryY=0;entryDx=0;entryDy=0;shadow=0;swimlaneLine=1;strokeColor=#000000;sketch=1;curveFitting=1;jiggle=2;strokeWidth=2;fontSize=12;fontStyle=1" parent="LYzSvVcboR2xnCCWTsnv-2" source="LYzSvVcboR2xnCCWTsnv-50" target="LYzSvVcboR2xnCCWTsnv-52" edge="1">
          <mxGeometry relative="1" as="geometry">
            <mxPoint x="163.25" y="719.9999999999998" as="targetPoint" />
          </mxGeometry>
        </mxCell>
        <mxCell id="LYzSvVcboR2xnCCWTsnv-50" value="&lt;font style=&quot;color: rgb(0, 0, 0);&quot;&gt;업로드 기능&lt;/font&gt;" style="text;html=1;align=center;verticalAlign=middle;whiteSpace=wrap;rounded=0;strokeColor=#3700CC;fillColor=#6a00ff;fontColor=#ffffff;fontStyle=1;shadow=0;swimlaneLine=1;sketch=1;curveFitting=1;jiggle=2;strokeWidth=2;fontSize=12;" parent="LYzSvVcboR2xnCCWTsnv-2" vertex="1">
          <mxGeometry x="79" y="640" width="160" height="40" as="geometry" />
        </mxCell>
        <mxCell id="c16TXa6cSCt1lNUTiCFk-2" style="edgeStyle=orthogonalEdgeStyle;rounded=0;orthogonalLoop=1;jettySize=auto;html=1;strokeColor=#000000;sketch=1;curveFitting=1;jiggle=2;strokeWidth=2;fontSize=12;fontStyle=1" parent="LYzSvVcboR2xnCCWTsnv-2" source="LYzSvVcboR2xnCCWTsnv-52" target="LYzSvVcboR2xnCCWTsnv-56" edge="1">
          <mxGeometry relative="1" as="geometry" />
        </mxCell>
        <mxCell id="LYzSvVcboR2xnCCWTsnv-52" value="&lt;div&gt;&lt;div style=&quot;text-align: center;&quot;&gt;&lt;font style=&quot;color: rgb(0, 0, 0);&quot;&gt;[회원]&lt;/font&gt;&lt;/div&gt;&lt;div style=&quot;text-align: center;&quot;&gt;&lt;font style=&quot;color: rgb(0, 0, 0);&quot;&gt;&lt;br&gt;&lt;/font&gt;&lt;/div&gt;&lt;div style=&quot;text-align: center;&quot;&gt;&lt;span style=&quot;background-color: transparent;&quot;&gt;&lt;font style=&quot;color: rgb(0, 0, 0);&quot;&gt;회원은 게시물을 등록할 수 있다 (Create)&lt;/font&gt;&lt;/span&gt;&lt;/div&gt;&lt;font style=&quot;color: rgb(0, 0, 0);&quot;&gt;회원은 게시물을&amp;nbsp;조회할 수 있다&amp;nbsp;(Read)&lt;br&gt;회원은 게시물을&amp;nbsp;수정할 수 있다&amp;nbsp;(Update)&lt;br&gt;회원은 게시물을&amp;nbsp;삭제할 수 있다&amp;nbsp;(Delete)&lt;/font&gt;&lt;/div&gt;" style="text;html=1;align=left;verticalAlign=middle;whiteSpace=wrap;rounded=0;strokeColor=#000000;shadow=0;swimlaneLine=1;sketch=1;curveFitting=1;jiggle=2;strokeWidth=2;fontSize=12;fontStyle=1" parent="LYzSvVcboR2xnCCWTsnv-2" vertex="1">
          <mxGeometry x="39" y="760" width="240" height="120" as="geometry" />
        </mxCell>
        <mxCell id="LYzSvVcboR2xnCCWTsnv-53" style="edgeStyle=orthogonalEdgeStyle;rounded=0;orthogonalLoop=1;jettySize=auto;html=1;exitX=0.5;exitY=1;exitDx=0;exitDy=0;entryX=0.5;entryY=0;entryDx=0;entryDy=0;shadow=0;swimlaneLine=1;strokeColor=#000000;sketch=1;curveFitting=1;jiggle=2;strokeWidth=2;fontSize=12;fontStyle=1" parent="LYzSvVcboR2xnCCWTsnv-2" source="LYzSvVcboR2xnCCWTsnv-54" target="LYzSvVcboR2xnCCWTsnv-50" edge="1">
          <mxGeometry relative="1" as="geometry" />
        </mxCell>
        <mxCell id="LYzSvVcboR2xnCCWTsnv-54" value="&lt;font style=&quot;color: rgb(0, 0, 0);&quot;&gt;기능&lt;/font&gt;" style="text;html=1;align=center;verticalAlign=middle;whiteSpace=wrap;rounded=0;strokeColor=#BD7000;fillColor=#f0a30a;fontColor=#FFFFFF;fontStyle=1;fontSize=12;shadow=0;swimlaneLine=1;sketch=1;curveFitting=1;jiggle=2;strokeWidth=2;" parent="LYzSvVcboR2xnCCWTsnv-2" vertex="1">
          <mxGeometry x="79" y="520" width="160" height="40" as="geometry" />
        </mxCell>
        <mxCell id="c16TXa6cSCt1lNUTiCFk-6" style="edgeStyle=orthogonalEdgeStyle;rounded=0;orthogonalLoop=1;jettySize=auto;html=1;entryX=0.5;entryY=0;entryDx=0;entryDy=0;strokeColor=#000000;sketch=1;curveFitting=1;jiggle=2;strokeWidth=2;fontSize=12;fontStyle=1" parent="LYzSvVcboR2xnCCWTsnv-2" source="LYzSvVcboR2xnCCWTsnv-56" target="LYzSvVcboR2xnCCWTsnv-58" edge="1">
          <mxGeometry relative="1" as="geometry" />
        </mxCell>
        <mxCell id="LYzSvVcboR2xnCCWTsnv-56" value="&lt;font style=&quot;color: rgb(0, 0, 0);&quot;&gt;댓글 기능(공감 혹은 반응)&lt;/font&gt;" style="text;html=1;align=center;verticalAlign=middle;whiteSpace=wrap;rounded=0;strokeColor=#3700CC;fillColor=#6a00ff;fontColor=#ffffff;fontStyle=1;shadow=0;swimlaneLine=1;sketch=1;curveFitting=1;jiggle=2;strokeWidth=2;fontSize=12;" parent="LYzSvVcboR2xnCCWTsnv-2" vertex="1">
          <mxGeometry x="79" y="960" width="160" height="40" as="geometry" />
        </mxCell>
        <mxCell id="LYzSvVcboR2xnCCWTsnv-57" style="edgeStyle=orthogonalEdgeStyle;rounded=0;orthogonalLoop=1;jettySize=auto;html=1;exitX=0.5;exitY=1;exitDx=0;exitDy=0;entryX=0.5;entryY=0;entryDx=0;entryDy=0;shadow=0;swimlaneLine=1;strokeColor=#000000;sketch=1;curveFitting=1;jiggle=2;strokeWidth=2;fontSize=12;fontStyle=1" parent="LYzSvVcboR2xnCCWTsnv-2" source="LYzSvVcboR2xnCCWTsnv-58" target="LYzSvVcboR2xnCCWTsnv-60" edge="1">
          <mxGeometry relative="1" as="geometry" />
        </mxCell>
        <mxCell id="LYzSvVcboR2xnCCWTsnv-58" value="&lt;div&gt;&lt;div style=&quot;text-align: center;&quot;&gt;&lt;span style=&quot;background-color: transparent;&quot;&gt;&lt;font style=&quot;color: rgb(0, 0, 0);&quot;&gt;[회원]&lt;/font&gt;&lt;/span&gt;&lt;/div&gt;&lt;div&gt;&lt;span style=&quot;background-color: transparent;&quot;&gt;&lt;font style=&quot;color: rgb(0, 0, 0);&quot;&gt;&lt;br&gt;&lt;/font&gt;&lt;/span&gt;&lt;/div&gt;&lt;div&gt;&lt;span style=&quot;background-color: transparent;&quot;&gt;&lt;font style=&quot;color: rgb(0, 0, 0);&quot;&gt;회원은 댓글을 등록할 수 있다 (Create)&lt;/font&gt;&lt;/span&gt;&lt;/div&gt;&lt;font style=&quot;color: rgb(0, 0, 0);&quot;&gt;회원은 댓글을 조회할 수 있다&lt;span&gt;&amp;nbsp;(Read)&lt;/span&gt;&lt;br&gt;회원은 댓글을 수정할 수 있다&lt;span&gt;&amp;nbsp;(Update)&lt;/span&gt;&lt;br&gt;회원은 댓글을 삭제할 수 있다&lt;span&gt;&amp;nbsp;(Delete)&lt;/span&gt;&lt;/font&gt;&lt;/div&gt;" style="text;html=1;align=left;verticalAlign=middle;whiteSpace=wrap;rounded=0;strokeColor=#000000;shadow=0;swimlaneLine=1;sketch=1;curveFitting=1;jiggle=2;strokeWidth=2;fontSize=12;fontStyle=1" parent="LYzSvVcboR2xnCCWTsnv-2" vertex="1">
          <mxGeometry x="39" y="1080" width="240" height="120" as="geometry" />
        </mxCell>
        <mxCell id="0NoJ1kTHYfertKE0bMIc-19" value="&lt;font style=&quot;color: rgb(0, 0, 0);&quot;&gt;Travel_SNS&lt;/font&gt;" style="text;html=1;align=center;verticalAlign=middle;whiteSpace=wrap;rounded=0;sketch=1;curveFitting=1;jiggle=2;strokeWidth=2;fontSize=32;fontStyle=1" parent="LYzSvVcboR2xnCCWTsnv-2" vertex="1">
          <mxGeometry x="39" y="10" width="320" height="90" as="geometry" />
        </mxCell>
        <mxCell id="2nBrNGREIw4cwzGFP3JP-2" value="" style="edgeStyle=orthogonalEdgeStyle;rounded=0;orthogonalLoop=1;jettySize=auto;html=1;strokeColor=#000000;sketch=1;curveFitting=1;jiggle=2;strokeWidth=2;fontSize=12;fontStyle=1" parent="1" source="2nBrNGREIw4cwzGFP3JP-3" target="2nBrNGREIw4cwzGFP3JP-4" edge="1">
          <mxGeometry relative="1" as="geometry" />
        </mxCell>
        <mxCell id="2nBrNGREIw4cwzGFP3JP-3" value="&lt;font style=&quot;color: rgb(0, 0, 0);&quot;&gt;댓글 관리 기능&lt;/font&gt;" style="text;html=1;align=center;verticalAlign=middle;whiteSpace=wrap;rounded=0;strokeColor=#3700CC;fillColor=#6a00ff;fontColor=#ffffff;fontStyle=1;shadow=0;swimlaneLine=1;sketch=1;curveFitting=1;jiggle=2;strokeWidth=2;fontSize=12;" parent="1" vertex="1">
          <mxGeometry x="-1761" y="1240" width="160" height="40" as="geometry" />
        </mxCell>
        <mxCell id="s-4aQJqjfONu--EMIDlr-3" value="" style="edgeStyle=orthogonalEdgeStyle;rounded=0;orthogonalLoop=1;jettySize=auto;html=1;sketch=1;curveFitting=1;jiggle=2;strokeWidth=2;fontSize=12;fontStyle=1" edge="1" parent="1" source="2nBrNGREIw4cwzGFP3JP-4" target="yAhKb7uIIoxokVIyxxAN-28">
          <mxGeometry relative="1" as="geometry" />
        </mxCell>
        <mxCell id="2nBrNGREIw4cwzGFP3JP-4" value="&lt;div&gt;&lt;div style=&quot;text-align: center;&quot;&gt;&lt;font style=&quot;color: rgb(0, 0, 0);&quot;&gt;[관리자]&lt;/font&gt;&lt;/div&gt;&lt;div style=&quot;text-align: center;&quot;&gt;&lt;font style=&quot;color: rgb(0, 0, 0);&quot;&gt;&lt;br&gt;&lt;/font&gt;&lt;/div&gt;&lt;font style=&quot;color: rgb(0, 0, 0);&quot;&gt;&lt;span&gt;관리자는 지도를 등록할 수 있다 (Create)&lt;/span&gt;&lt;br&gt;관리자는&amp;nbsp;&lt;span style=&quot;background-color: transparent;&quot;&gt;지도를&lt;/span&gt;&lt;span style=&quot;background-color: transparent;&quot;&gt;&amp;nbsp;조회할 수 있다&lt;/span&gt;&lt;span style=&quot;background-color: transparent;&quot;&gt;&amp;nbsp;(Read)&lt;/span&gt;&lt;/font&gt;&lt;/div&gt;&lt;div&gt;&lt;font style=&quot;color: rgb(0, 0, 0);&quot;&gt;&lt;span style=&quot;background-color: transparent;&quot;&gt;관리자는&lt;/span&gt;&amp;nbsp;&lt;span style=&quot;background-color: transparent;&quot;&gt;지도를&lt;/span&gt;&lt;span style=&quot;background-color: transparent;&quot;&gt;&amp;nbsp;수정할 수 있&lt;/span&gt;&lt;span style=&quot;background-color: transparent;&quot;&gt;다&lt;/span&gt;&lt;span style=&quot;background-color: transparent;&quot;&gt;&amp;nbsp;(Update)&lt;/span&gt;&lt;/font&gt;&lt;/div&gt;&lt;div&gt;&lt;font style=&quot;color: rgb(0, 0, 0);&quot;&gt;&lt;span style=&quot;background-color: transparent;&quot;&gt;관리자는&lt;/span&gt;&amp;nbsp;&lt;span style=&quot;background-color: transparent;&quot;&gt;지도를&lt;/span&gt;&lt;span style=&quot;background-color: transparent;&quot;&gt;&amp;nbsp;삭제할 수 있&lt;/span&gt;&lt;span style=&quot;background-color: transparent;&quot;&gt;다&lt;/span&gt;&lt;span style=&quot;background-color: transparent;&quot;&gt;&amp;nbsp;(Delete)&lt;/span&gt;&lt;/font&gt;&lt;/div&gt;" style="text;html=1;align=left;verticalAlign=middle;whiteSpace=wrap;rounded=0;strokeColor=#000000;shadow=0;swimlaneLine=1;sketch=1;curveFitting=1;jiggle=2;strokeWidth=2;fontSize=12;fontStyle=1" parent="1" vertex="1">
          <mxGeometry x="-1801" y="1360" width="240" height="120" as="geometry" />
        </mxCell>
        <mxCell id="2nBrNGREIw4cwzGFP3JP-5" value="" style="edgeStyle=orthogonalEdgeStyle;rounded=0;orthogonalLoop=1;jettySize=auto;html=1;strokeColor=#000000;sketch=1;curveFitting=1;jiggle=2;strokeWidth=2;fontSize=12;fontStyle=1" parent="1" source="2nBrNGREIw4cwzGFP3JP-6" target="2nBrNGREIw4cwzGFP3JP-7" edge="1">
          <mxGeometry relative="1" as="geometry" />
        </mxCell>
        <mxCell id="2nBrNGREIw4cwzGFP3JP-6" value="&lt;font style=&quot;color: rgb(0, 0, 0);&quot;&gt;업로드 관리 기능&lt;/font&gt;" style="text;html=1;align=center;verticalAlign=middle;whiteSpace=wrap;rounded=0;strokeColor=#3700CC;fillColor=#6a00ff;fontColor=#ffffff;fontStyle=1;shadow=0;swimlaneLine=1;sketch=1;curveFitting=1;jiggle=2;strokeWidth=2;fontSize=12;" parent="1" vertex="1">
          <mxGeometry x="-1762" y="919" width="160" height="40" as="geometry" />
        </mxCell>
        <mxCell id="s-4aQJqjfONu--EMIDlr-2" value="" style="edgeStyle=orthogonalEdgeStyle;rounded=0;orthogonalLoop=1;jettySize=auto;html=1;strokeColor=#000000;sketch=1;curveFitting=1;jiggle=2;strokeWidth=2;fontSize=12;fontStyle=1" edge="1" parent="1" source="2nBrNGREIw4cwzGFP3JP-7" target="2nBrNGREIw4cwzGFP3JP-3">
          <mxGeometry relative="1" as="geometry" />
        </mxCell>
        <mxCell id="2nBrNGREIw4cwzGFP3JP-7" value="&lt;div&gt;&lt;div style=&quot;text-align: center;&quot;&gt;&lt;font style=&quot;color: rgb(0, 0, 0);&quot;&gt;[관리자]&lt;/font&gt;&lt;/div&gt;&lt;div style=&quot;text-align: center;&quot;&gt;&lt;font style=&quot;color: rgb(0, 0, 0);&quot;&gt;&lt;br&gt;&lt;/font&gt;&lt;/div&gt;&lt;font style=&quot;color: rgb(0, 0, 0);&quot;&gt;&lt;span&gt;관리자는 지도를 등록할 수 있다 (Create)&lt;/span&gt;&lt;br&gt;관리자는&amp;nbsp;&lt;span style=&quot;background-color: transparent;&quot;&gt;지도를&lt;/span&gt;&lt;span style=&quot;background-color: transparent;&quot;&gt;&amp;nbsp;조회할 수 있다&lt;/span&gt;&lt;span style=&quot;background-color: transparent;&quot;&gt;&amp;nbsp;(Read)&lt;/span&gt;&lt;/font&gt;&lt;/div&gt;&lt;div&gt;&lt;font style=&quot;color: rgb(0, 0, 0);&quot;&gt;&lt;span style=&quot;background-color: transparent;&quot;&gt;관리자는&lt;/span&gt;&amp;nbsp;&lt;span style=&quot;background-color: transparent;&quot;&gt;지도를&lt;/span&gt;&lt;span style=&quot;background-color: transparent;&quot;&gt;&amp;nbsp;수정할 수 있&lt;/span&gt;&lt;span style=&quot;background-color: transparent;&quot;&gt;다&lt;/span&gt;&lt;span style=&quot;background-color: transparent;&quot;&gt;&amp;nbsp;(Update)&lt;/span&gt;&lt;/font&gt;&lt;/div&gt;&lt;div&gt;&lt;font style=&quot;color: rgb(0, 0, 0);&quot;&gt;&lt;span style=&quot;background-color: transparent;&quot;&gt;관리자는&lt;/span&gt;&amp;nbsp;&lt;span style=&quot;background-color: transparent;&quot;&gt;지도를&lt;/span&gt;&lt;span style=&quot;background-color: transparent;&quot;&gt;&amp;nbsp;삭제할 수 있&lt;/span&gt;&lt;span style=&quot;background-color: transparent;&quot;&gt;다&lt;/span&gt;&lt;span style=&quot;background-color: transparent;&quot;&gt;&amp;nbsp;(Delete)&lt;/span&gt;&lt;/font&gt;&lt;/div&gt;" style="text;html=1;align=left;verticalAlign=middle;whiteSpace=wrap;rounded=0;strokeColor=#000000;shadow=0;swimlaneLine=1;sketch=1;curveFitting=1;jiggle=2;strokeWidth=2;fontSize=12;fontStyle=1" parent="1" vertex="1">
          <mxGeometry x="-1802" y="1039" width="240" height="120" as="geometry" />
        </mxCell>
        <mxCell id="s-4aQJqjfONu--EMIDlr-6" style="edgeStyle=orthogonalEdgeStyle;rounded=0;orthogonalLoop=1;jettySize=auto;html=1;entryX=0;entryY=0.5;entryDx=0;entryDy=0;strokeColor=#000000;" edge="1" parent="1" source="yAhKb7uIIoxokVIyxxAN-17" target="2nBrNGREIw4cwzGFP3JP-6">
          <mxGeometry relative="1" as="geometry" />
        </mxCell>
        <mxCell id="s-4aQJqjfONu--EMIDlr-7" style="edgeStyle=orthogonalEdgeStyle;rounded=0;orthogonalLoop=1;jettySize=auto;html=1;strokeColor=#000000;" edge="1" parent="1" source="yAhKb7uIIoxokVIyxxAN-23" target="2nBrNGREIw4cwzGFP3JP-3">
          <mxGeometry relative="1" as="geometry" />
        </mxCell>
      </root>
    </mxGraphModel>
  </diagram>
  <diagram id="SMNJAOv4ItNc3ZoPgKTp" name="USECASE">
    <mxGraphModel dx="3176" dy="1128" grid="1" gridSize="10" guides="1" tooltips="1" connect="1" arrows="1" fold="1" page="1" pageScale="1" pageWidth="827" pageHeight="1169" math="0" shadow="0">
      <root>
        <mxCell id="0" />
        <mxCell id="1" parent="0" />
        <mxCell id="8bXZEVm6hf9_-CVSEGQl-1" value="frame" style="shape=umlFrame;whiteSpace=wrap;html=1;pointerEvents=0;" parent="1" vertex="1">
          <mxGeometry x="160" y="120" width="1200" height="910" as="geometry" />
        </mxCell>
        <mxCell id="5TFeH9mQAUnapVeY9cD_-21" style="edgeStyle=orthogonalEdgeStyle;rounded=0;orthogonalLoop=1;jettySize=auto;html=1;entryX=0;entryY=0.5;entryDx=0;entryDy=0;" parent="1" source="8bXZEVm6hf9_-CVSEGQl-2" target="8bXZEVm6hf9_-CVSEGQl-10" edge="1">
          <mxGeometry relative="1" as="geometry" />
        </mxCell>
        <mxCell id="8bXZEVm6hf9_-CVSEGQl-2" value="회원" style="shape=umlActor;verticalLabelPosition=bottom;verticalAlign=top;html=1;" parent="1" vertex="1">
          <mxGeometry x="80" y="200" width="40" height="80" as="geometry" />
        </mxCell>
        <mxCell id="8bXZEVm6hf9_-CVSEGQl-3" value="관리자" style="shape=umlActor;verticalLabelPosition=bottom;verticalAlign=top;html=1;" parent="1" vertex="1">
          <mxGeometry x="1440" y="200" width="40" height="80" as="geometry" />
        </mxCell>
        <mxCell id="8bXZEVm6hf9_-CVSEGQl-4" value="비회원" style="shape=umlActor;verticalLabelPosition=bottom;verticalAlign=top;html=1;" parent="1" vertex="1">
          <mxGeometry x="80" y="600" width="40" height="80" as="geometry" />
        </mxCell>
        <mxCell id="8bXZEVm6hf9_-CVSEGQl-6" value="회원 관리" style="ellipse;whiteSpace=wrap;html=1;" parent="1" vertex="1">
          <mxGeometry x="1120" y="470" width="160" height="80" as="geometry" />
        </mxCell>
        <mxCell id="8bXZEVm6hf9_-CVSEGQl-7" value="회원가입" style="ellipse;whiteSpace=wrap;html=1;" parent="1" vertex="1">
          <mxGeometry x="320" y="640" width="160" height="80" as="geometry" />
        </mxCell>
        <mxCell id="5TFeH9mQAUnapVeY9cD_-17" style="edgeStyle=orthogonalEdgeStyle;rounded=0;orthogonalLoop=1;jettySize=auto;html=1;entryX=0.5;entryY=0;entryDx=0;entryDy=0;" parent="1" source="8bXZEVm6hf9_-CVSEGQl-10" target="5TFeH9mQAUnapVeY9cD_-12" edge="1">
          <mxGeometry relative="1" as="geometry" />
        </mxCell>
        <mxCell id="5TFeH9mQAUnapVeY9cD_-18" style="edgeStyle=orthogonalEdgeStyle;rounded=0;orthogonalLoop=1;jettySize=auto;html=1;entryX=0.5;entryY=0;entryDx=0;entryDy=0;" parent="1" source="8bXZEVm6hf9_-CVSEGQl-10" target="5TFeH9mQAUnapVeY9cD_-13" edge="1">
          <mxGeometry relative="1" as="geometry" />
        </mxCell>
        <mxCell id="5TFeH9mQAUnapVeY9cD_-19" style="edgeStyle=orthogonalEdgeStyle;rounded=0;orthogonalLoop=1;jettySize=auto;html=1;entryX=0.5;entryY=0;entryDx=0;entryDy=0;" parent="1" source="8bXZEVm6hf9_-CVSEGQl-10" target="5TFeH9mQAUnapVeY9cD_-14" edge="1">
          <mxGeometry relative="1" as="geometry" />
        </mxCell>
        <mxCell id="5TFeH9mQAUnapVeY9cD_-20" style="edgeStyle=orthogonalEdgeStyle;rounded=0;orthogonalLoop=1;jettySize=auto;html=1;entryX=0.5;entryY=0;entryDx=0;entryDy=0;" parent="1" source="8bXZEVm6hf9_-CVSEGQl-10" target="5TFeH9mQAUnapVeY9cD_-15" edge="1">
          <mxGeometry relative="1" as="geometry" />
        </mxCell>
        <mxCell id="gXU6pcOnb6kkI4sUCCKY-9" style="edgeStyle=orthogonalEdgeStyle;rounded=0;orthogonalLoop=1;jettySize=auto;html=1;entryX=0;entryY=0.5;entryDx=0;entryDy=0;" parent="1" source="8bXZEVm6hf9_-CVSEGQl-10" target="TJaiFZBkeRKXnngMa2Tr-1" edge="1">
          <mxGeometry relative="1" as="geometry" />
        </mxCell>
        <mxCell id="8bXZEVm6hf9_-CVSEGQl-10" value="업로드" style="ellipse;whiteSpace=wrap;html=1;" parent="1" vertex="1">
          <mxGeometry x="320" y="160" width="160" height="80" as="geometry" />
        </mxCell>
        <mxCell id="gXU6pcOnb6kkI4sUCCKY-5" style="edgeStyle=orthogonalEdgeStyle;rounded=0;orthogonalLoop=1;jettySize=auto;html=1;entryX=0.5;entryY=0;entryDx=0;entryDy=0;" parent="1" source="TJaiFZBkeRKXnngMa2Tr-1" target="gXU6pcOnb6kkI4sUCCKY-1" edge="1">
          <mxGeometry relative="1" as="geometry" />
        </mxCell>
        <mxCell id="gXU6pcOnb6kkI4sUCCKY-6" style="edgeStyle=orthogonalEdgeStyle;rounded=0;orthogonalLoop=1;jettySize=auto;html=1;entryX=0.5;entryY=0;entryDx=0;entryDy=0;" parent="1" source="TJaiFZBkeRKXnngMa2Tr-1" target="gXU6pcOnb6kkI4sUCCKY-2" edge="1">
          <mxGeometry relative="1" as="geometry" />
        </mxCell>
        <mxCell id="gXU6pcOnb6kkI4sUCCKY-7" style="edgeStyle=orthogonalEdgeStyle;rounded=0;orthogonalLoop=1;jettySize=auto;html=1;entryX=0.5;entryY=0;entryDx=0;entryDy=0;" parent="1" source="TJaiFZBkeRKXnngMa2Tr-1" target="gXU6pcOnb6kkI4sUCCKY-3" edge="1">
          <mxGeometry relative="1" as="geometry" />
        </mxCell>
        <mxCell id="gXU6pcOnb6kkI4sUCCKY-8" style="edgeStyle=orthogonalEdgeStyle;rounded=0;orthogonalLoop=1;jettySize=auto;html=1;entryX=0.5;entryY=0;entryDx=0;entryDy=0;" parent="1" source="TJaiFZBkeRKXnngMa2Tr-1" target="gXU6pcOnb6kkI4sUCCKY-4" edge="1">
          <mxGeometry relative="1" as="geometry" />
        </mxCell>
        <mxCell id="TJaiFZBkeRKXnngMa2Tr-1" value="게시물 댓글" style="ellipse;whiteSpace=wrap;html=1;" parent="1" vertex="1">
          <mxGeometry x="640" y="160" width="160" height="80" as="geometry" />
        </mxCell>
        <mxCell id="5TFeH9mQAUnapVeY9cD_-1" value="지도" style="ellipse;whiteSpace=wrap;html=1;" parent="1" vertex="1">
          <mxGeometry x="320" y="480" width="160" height="80" as="geometry" />
        </mxCell>
        <mxCell id="5TFeH9mQAUnapVeY9cD_-2" value="지도 관리" style="ellipse;whiteSpace=wrap;html=1;" parent="1" vertex="1">
          <mxGeometry x="1090" y="190" width="160" height="80" as="geometry" />
        </mxCell>
        <mxCell id="5TFeH9mQAUnapVeY9cD_-6" value="로그인" style="ellipse;whiteSpace=wrap;html=1;" parent="1" vertex="1">
          <mxGeometry x="360" y="760" width="80" height="80" as="geometry" />
        </mxCell>
        <mxCell id="5TFeH9mQAUnapVeY9cD_-7" value="로그아웃" style="ellipse;whiteSpace=wrap;html=1;" parent="1" vertex="1">
          <mxGeometry x="280" y="760" width="80" height="80" as="geometry" />
        </mxCell>
        <mxCell id="5TFeH9mQAUnapVeY9cD_-8" value="조회&lt;div&gt;(정보 검색)&lt;/div&gt;" style="ellipse;whiteSpace=wrap;html=1;" parent="1" vertex="1">
          <mxGeometry x="1010" y="320" width="80" height="80" as="geometry" />
        </mxCell>
        <mxCell id="5TFeH9mQAUnapVeY9cD_-9" value="등록&lt;div&gt;(정보 등록)&lt;/div&gt;" style="ellipse;whiteSpace=wrap;html=1;" parent="1" vertex="1">
          <mxGeometry x="930" y="320" width="80" height="80" as="geometry" />
        </mxCell>
        <mxCell id="5TFeH9mQAUnapVeY9cD_-10" value="수정&lt;div&gt;(정보 수정)&lt;/div&gt;" style="ellipse;whiteSpace=wrap;html=1;" parent="1" vertex="1">
          <mxGeometry x="1090" y="320" width="80" height="80" as="geometry" />
        </mxCell>
        <mxCell id="5TFeH9mQAUnapVeY9cD_-11" value="수정&lt;div&gt;(정보 수정)&lt;/div&gt;" style="ellipse;whiteSpace=wrap;html=1;" parent="1" vertex="1">
          <mxGeometry x="1170" y="320" width="80" height="80" as="geometry" />
        </mxCell>
        <mxCell id="5TFeH9mQAUnapVeY9cD_-12" value="등록&lt;div&gt;(정보 등록)&lt;/div&gt;" style="ellipse;whiteSpace=wrap;html=1;" parent="1" vertex="1">
          <mxGeometry x="240" y="320" width="80" height="80" as="geometry" />
        </mxCell>
        <mxCell id="5TFeH9mQAUnapVeY9cD_-13" value="조회&lt;div&gt;(정보 검색)&lt;/div&gt;" style="ellipse;whiteSpace=wrap;html=1;" parent="1" vertex="1">
          <mxGeometry x="320" y="320" width="80" height="80" as="geometry" />
        </mxCell>
        <mxCell id="5TFeH9mQAUnapVeY9cD_-14" value="수정&lt;div&gt;(정보 수정)&lt;/div&gt;" style="ellipse;whiteSpace=wrap;html=1;" parent="1" vertex="1">
          <mxGeometry x="400" y="320" width="80" height="80" as="geometry" />
        </mxCell>
        <mxCell id="5TFeH9mQAUnapVeY9cD_-15" value="수정&lt;div&gt;(정보 수정)&lt;/div&gt;" style="ellipse;whiteSpace=wrap;html=1;" parent="1" vertex="1">
          <mxGeometry x="480" y="320" width="80" height="80" as="geometry" />
        </mxCell>
        <mxCell id="5TFeH9mQAUnapVeY9cD_-16" value="&lt;div&gt;[회원]&lt;/div&gt;&lt;div&gt;&lt;br&gt;&lt;/div&gt;로그인을 한다&lt;div&gt;&lt;br&gt;&lt;div&gt;내&amp;nbsp; 프로필에 게시물을 등록을 한다(업로드 할 수 있다) -&amp;nbsp;&lt;span style=&quot;background-color: transparent; color: light-dark(rgb(0, 0, 0), rgb(255, 255, 255));&quot;&gt;내 프로필에 게시물이 조회가 된다(볼 수 있다) -&amp;nbsp;&lt;/span&gt;&lt;span style=&quot;background-color: transparent; color: light-dark(rgb(0, 0, 0), rgb(255, 255, 255));&quot;&gt;내 프로필에 게시물이 수정이 된다 -&amp;nbsp;&lt;/span&gt;&lt;span style=&quot;background-color: transparent; color: light-dark(rgb(0, 0, 0), rgb(255, 255, 255));&quot;&gt;내 프로필에 게시물이 죄회가 된다&lt;/span&gt;&lt;/div&gt;&lt;div&gt;&lt;span style=&quot;background-color: transparent; color: light-dark(rgb(0, 0, 0), rgb(255, 255, 255));&quot;&gt;&lt;br&gt;&lt;/span&gt;&lt;/div&gt;&lt;div&gt;&lt;span style=&quot;background-color: transparent; color: light-dark(rgb(0, 0, 0), rgb(255, 255, 255));&quot;&gt;내가 다른 사람의 게시물을 메인 페이지 볼 수 있다&amp;nbsp;&amp;nbsp;&lt;/span&gt;&lt;/div&gt;&lt;div&gt;&lt;br&gt;&lt;/div&gt;&lt;div&gt;{등록}&lt;/div&gt;&lt;div&gt;내&amp;nbsp; 프로필에 게시물을 등록을 한다(업로드 할 수 있다)&lt;/div&gt;&lt;div&gt;&lt;br&gt;&lt;/div&gt;&lt;div&gt;{조회}&lt;/div&gt;&lt;div&gt;&lt;br&gt;&lt;/div&gt;&lt;div&gt;&lt;br&gt;&lt;/div&gt;&lt;div&gt;&lt;br&gt;&lt;/div&gt;&lt;div&gt;내가 다른 회원의 게시물을 검색 페이지 볼 수 있다&lt;/div&gt;&lt;div&gt;내가 다른 회원의 이름을 검색할 수 있다&lt;/div&gt;&lt;div&gt;&lt;br&gt;&lt;/div&gt;&lt;div&gt;내가 다른 사람의 게시물을 다른 회원의 프로필 페이지 볼 수 있다&lt;/div&gt;&lt;div&gt;&lt;br&gt;&lt;/div&gt;&lt;div&gt;업로드 된 게시물은 공개 비공개 설정에 따라 다르다&lt;/div&gt;&lt;div&gt;1. 전체공개 (팔로워건 아니건 다 볼 수 있음)&lt;/div&gt;&lt;div&gt;2. 부분공개 (팔로워만 볼 수 있다)&lt;/div&gt;&lt;div&gt;3. 비공개 (자기 자신만 볼 수 있다)&lt;/div&gt;&lt;div&gt;&lt;br&gt;&lt;/div&gt;&lt;div&gt;(메인 페이지에서는 자기가 볼 수 있는 게시물들을 최근 업로드물 시간 순서상 내림차순으로 볼 수 있다)&lt;/div&gt;&lt;div&gt;&lt;br&gt;&lt;/div&gt;&lt;div&gt;로그아웃을 한다&lt;/div&gt;&lt;div&gt;&lt;br&gt;&lt;/div&gt;&lt;/div&gt;" style="text;html=1;align=center;verticalAlign=middle;whiteSpace=wrap;rounded=0;" parent="1" vertex="1">
          <mxGeometry x="-1650" y="180" width="1650" height="710" as="geometry" />
        </mxCell>
        <mxCell id="gXU6pcOnb6kkI4sUCCKY-1" value="등록&lt;div&gt;(정보 등록)&lt;/div&gt;" style="ellipse;whiteSpace=wrap;html=1;" parent="1" vertex="1">
          <mxGeometry x="560" y="320" width="80" height="80" as="geometry" />
        </mxCell>
        <mxCell id="gXU6pcOnb6kkI4sUCCKY-2" value="조회&lt;div&gt;(정보 검색)&lt;/div&gt;" style="ellipse;whiteSpace=wrap;html=1;" parent="1" vertex="1">
          <mxGeometry x="640" y="320" width="80" height="80" as="geometry" />
        </mxCell>
        <mxCell id="gXU6pcOnb6kkI4sUCCKY-3" value="수정&lt;div&gt;(정보 수정)&lt;/div&gt;" style="ellipse;whiteSpace=wrap;html=1;" parent="1" vertex="1">
          <mxGeometry x="720" y="320" width="80" height="80" as="geometry" />
        </mxCell>
        <mxCell id="gXU6pcOnb6kkI4sUCCKY-4" value="수정&lt;div&gt;(정보 수정)&lt;/div&gt;" style="ellipse;whiteSpace=wrap;html=1;" parent="1" vertex="1">
          <mxGeometry x="800" y="320" width="80" height="80" as="geometry" />
        </mxCell>
      </root>
    </mxGraphModel>
  </diagram>
</mxfile>
